<svg xmlns="http://www.w3.org/2000/svg" xmlns:xlink="http://www.w3.org/1999/xlink" width="80px" height="30px" viewBox="0 0 80 30" version="1.1">
<defs>
<clipPath id="clip1">
  <path d="M 0 0 L 54 0 L 54 29.898438 L 0 29.898438 Z M 0 0 "/>
</clipPath>
<clipPath id="clip2">
  <path d="M 10 16 L 40 16 L 40 29.898438 L 10 29.898438 Z M 10 16 "/>
</clipPath>
<clipPath id="clip3">
  <path d="M 39 16 L 71 16 L 71 29.898438 L 39 29.898438 Z M 39 16 "/>
</clipPath>
<clipPath id="clip4">
  <path d="M 69 16 L 79.972656 16 L 79.972656 29.898438 L 69 29.898438 Z M 69 16 "/>
</clipPath>
</defs>
<g id="surface1">
<g clip-path="url(#clip1)" clip-rule="nonzero">
<path style=" stroke:none;fill-rule:nonzero;fill:rgb(100%,100%,100%);fill-opacity:1;" d="M 41.289062 9.902344 L 45.09375 9.65625 C 45.179688 10.28125 45.339844 10.746094 45.597656 11.082031 C 46.019531 11.605469 46.597656 11.867188 47.363281 11.867188 C 47.925781 11.867188 48.375 11.738281 48.679688 11.460938 C 48.96875 11.242188 49.144531 10.894531 49.144531 10.527344 C 49.144531 10.179688 48.984375 9.84375 48.707031 9.625 C 48.417969 9.363281 47.738281 9.101562 46.667969 8.867188 C 44.917969 8.476562 43.660156 7.953125 42.921875 7.28125 C 42.183594 6.65625 41.765625 5.738281 41.792969 4.761719 C 41.792969 4.09375 41.996094 3.421875 42.371094 2.867188 C 42.804688 2.242188 43.398438 1.746094 44.109375 1.472656 C 44.875 1.136719 45.945312 0.960938 47.292969 0.960938 C 48.941406 0.960938 50.199219 1.265625 51.066406 1.894531 C 51.933594 2.503906 52.457031 3.496094 52.613281 4.847656 L 48.855469 5.066406 C 48.753906 4.484375 48.550781 4.0625 48.21875 3.785156 C 47.882812 3.507812 47.449219 3.378906 46.886719 3.378906 C 46.421875 3.378906 46.074219 3.480469 45.84375 3.667969 C 45.628906 3.84375 45.484375 4.105469 45.496094 4.398438 C 45.496094 4.617188 45.613281 4.820312 45.785156 4.953125 C 45.976562 5.125 46.421875 5.285156 47.132812 5.433594 C 48.882812 5.8125 50.125 6.1875 50.894531 6.582031 C 51.660156 6.976562 52.210938 7.457031 52.542969 8.023438 C 52.890625 8.605469 53.0625 9.277344 53.046875 9.960938 C 53.046875 10.777344 52.816406 11.59375 52.355469 12.277344 C 51.878906 12.992188 51.210938 13.542969 50.429688 13.878906 C 49.605469 14.242188 48.5625 14.433594 47.320312 14.433594 C 45.121094 14.433594 43.601562 14.007812 42.75 13.152344 C 41.894531 12.292969 41.390625 11.214844 41.289062 9.902344 Z M 0.910156 14.214844 L 0.910156 1.195312 L 7.582031 1.195312 C 8.808594 1.195312 9.765625 1.296875 10.414062 1.515625 C 11.050781 1.71875 11.617188 2.140625 11.992188 2.707031 C 12.414062 3.335938 12.613281 4.0625 12.601562 4.820312 C 12.644531 6.101562 11.992188 7.324219 10.878906 7.964844 C 10.445312 8.214844 9.96875 8.386719 9.476562 8.476562 C 9.835938 8.578125 10.199219 8.753906 10.515625 8.957031 C 10.761719 9.160156 10.964844 9.394531 11.152344 9.640625 C 11.371094 9.886719 11.558594 10.164062 11.71875 10.457031 L 13.65625 14.226562 L 9.113281 14.226562 L 6.972656 10.222656 C 6.699219 9.714844 6.464844 9.378906 6.25 9.21875 C 5.960938 9.015625 5.613281 8.914062 5.265625 8.914062 L 4.917969 8.914062 L 4.917969 14.199219 L 0.910156 14.199219 Z M 4.917969 6.464844 L 6.609375 6.464844 C 6.972656 6.4375 7.320312 6.378906 7.667969 6.292969 C 7.925781 6.246094 8.160156 6.101562 8.316406 5.882812 C 8.707031 5.359375 8.652344 4.617188 8.171875 4.164062 C 7.914062 3.945312 7.40625 3.832031 6.683594 3.832031 L 4.917969 3.832031 Z M 0 25.367188 L 3.804688 25.121094 C 3.890625 25.746094 4.050781 26.214844 4.3125 26.546875 C 4.714844 27.074219 5.308594 27.347656 6.074219 27.347656 C 6.640625 27.347656 7.089844 27.21875 7.390625 26.941406 C 7.683594 26.707031 7.855469 26.375 7.855469 26.007812 C 7.855469 25.660156 7.695312 25.324219 7.421875 25.105469 C 7.132812 24.84375 6.453125 24.582031 5.367188 24.347656 C 3.617188 23.957031 2.359375 23.433594 1.621094 22.761719 C 0.882812 22.136719 0.464844 21.21875 0.492188 20.242188 C 0.492188 19.574219 0.695312 18.902344 1.070312 18.347656 C 1.503906 17.722656 2.097656 17.226562 2.804688 16.953125 C 3.574219 16.617188 4.644531 16.441406 5.988281 16.441406 C 7.636719 16.441406 8.898438 16.746094 9.765625 17.375 C 10.632812 18 11.140625 18.976562 11.296875 20.332031 L 7.535156 20.546875 C 7.4375 19.964844 7.234375 19.542969 6.902344 19.265625 C 6.582031 18.992188 6.132812 18.859375 5.570312 18.875 C 5.105469 18.875 4.757812 18.976562 4.527344 19.179688 C 4.296875 19.355469 4.167969 19.617188 4.179688 19.90625 C 4.179688 20.125 4.296875 20.332031 4.46875 20.460938 C 4.660156 20.636719 5.105469 20.796875 5.816406 20.941406 C 7.566406 21.320312 8.808594 21.699219 9.578125 22.09375 C 10.34375 22.484375 10.894531 22.964844 11.226562 23.535156 C 11.574219 24.117188 11.746094 24.785156 11.746094 25.457031 C 11.746094 26.273438 11.5 27.074219 11.050781 27.757812 C 10.574219 28.472656 9.910156 29.023438 9.128906 29.359375 C 8.304688 29.722656 7.261719 29.914062 6.019531 29.914062 C 3.820312 29.914062 2.300781 29.492188 1.445312 28.632812 C 0.59375 27.757812 0.117188 26.679688 0 25.367188 Z M 0 25.367188 "/>
</g>
<g clip-path="url(#clip2)" clip-rule="nonzero">
<path style=" stroke:none;fill-rule:nonzero;fill:rgb(100%,100%,100%);fill-opacity:1;" d="M 19.242188 24.347656 L 22.742188 25.414062 C 22.554688 26.300781 22.164062 27.144531 21.628906 27.886719 C 21.136719 28.542969 20.484375 29.054688 19.746094 29.386719 C 18.996094 29.722656 18.039062 29.898438 16.882812 29.898438 C 15.480469 29.898438 14.320312 29.695312 13.4375 29.285156 C 12.542969 28.878906 11.777344 28.152344 11.125 27.117188 C 10.472656 26.082031 10.15625 24.757812 10.15625 23.140625 C 10.15625 20.984375 10.71875 19.324219 11.863281 18.175781 C 13.003906 17.023438 14.609375 16.441406 16.695312 16.441406 C 18.328125 16.441406 19.601562 16.777344 20.542969 17.433594 C 21.46875 18.101562 22.164062 19.121094 22.625 20.492188 L 19.097656 21.277344 C 19.007812 20.972656 18.878906 20.664062 18.707031 20.402344 C 18.488281 20.097656 18.214844 19.863281 17.878906 19.6875 C 17.546875 19.515625 17.171875 19.441406 16.796875 19.441406 C 15.882812 19.441406 15.191406 19.804688 14.710938 20.546875 C 14.351562 21.085938 14.164062 21.945312 14.164062 23.113281 C 14.164062 24.554688 14.378906 25.542969 14.8125 26.082031 C 15.246094 26.621094 15.855469 26.882812 16.652344 26.882812 C 17.417969 26.882812 17.996094 26.664062 18.386719 26.242188 C 18.777344 25.792969 19.066406 25.164062 19.242188 24.347656 Z M 27.414062 16.660156 L 31.40625 16.660156 L 31.40625 21.21875 L 35.777344 21.21875 L 35.777344 16.660156 L 39.796875 16.660156 L 39.796875 29.679688 L 35.777344 29.679688 L 35.777344 24.40625 L 31.40625 24.40625 L 31.40625 29.679688 L 27.414062 29.679688 Z M 27.414062 16.660156 "/>
</g>
<g clip-path="url(#clip3)" clip-rule="nonzero">
<path style=" stroke:none;fill-rule:nonzero;fill:rgb(100%,100%,100%);fill-opacity:1;" d="M 39.246094 23.167969 C 39.246094 21.042969 39.839844 19.382812 41.011719 18.203125 C 42.183594 17.023438 43.832031 16.425781 45.929688 16.425781 C 48.085938 16.425781 49.734375 17.007812 50.90625 18.175781 C 52.078125 19.339844 52.660156 20.972656 52.660156 23.066406 C 52.660156 24.597656 52.398438 25.835938 51.890625 26.8125 C 51.398438 27.773438 50.632812 28.558594 49.691406 29.082031 C 48.722656 29.621094 47.523438 29.898438 46.089844 29.898438 C 44.628906 29.898438 43.429688 29.664062 42.472656 29.199219 C 41.488281 28.703125 40.679688 27.933594 40.144531 26.984375 C 39.550781 25.964844 39.246094 24.699219 39.246094 23.167969 Z M 43.242188 23.183594 C 43.242188 24.496094 43.488281 25.441406 43.964844 26.023438 C 44.441406 26.59375 45.105469 26.882812 45.945312 26.882812 C 46.800781 26.882812 47.464844 26.605469 47.941406 26.039062 C 48.417969 25.472656 48.652344 24.464844 48.652344 23.007812 C 48.652344 21.785156 48.40625 20.882812 47.914062 20.332031 C 47.421875 19.761719 46.757812 19.484375 45.917969 19.484375 C 45.179688 19.457031 44.46875 19.777344 43.976562 20.34375 C 43.488281 20.914062 43.242188 21.859375 43.242188 23.183594 Z M 56.753906 23.167969 C 56.753906 21.042969 57.34375 19.382812 58.515625 18.203125 C 59.6875 17.023438 61.339844 16.425781 63.4375 16.425781 C 65.589844 16.425781 67.253906 17.007812 68.414062 18.175781 C 69.570312 19.339844 70.164062 20.972656 70.164062 23.066406 C 70.164062 24.597656 69.902344 25.835938 69.394531 26.8125 C 68.902344 27.773438 68.136719 28.558594 67.195312 29.082031 C 66.226562 29.621094 65.027344 29.898438 63.59375 29.898438 C 62.132812 29.898438 60.933594 29.664062 59.976562 29.199219 C 58.996094 28.703125 58.183594 27.933594 57.648438 26.984375 C 57.054688 25.964844 56.753906 24.699219 56.753906 23.167969 Z M 60.746094 23.183594 C 60.746094 24.496094 60.992188 25.441406 61.46875 26.023438 C 61.945312 26.59375 62.609375 26.882812 63.449219 26.882812 C 64.304688 26.882812 64.96875 26.605469 65.445312 26.039062 C 65.925781 25.472656 66.15625 24.464844 66.15625 23.007812 C 66.15625 21.785156 65.910156 20.882812 65.417969 20.332031 C 64.925781 19.761719 64.261719 19.484375 63.421875 19.484375 C 62.683594 19.457031 61.960938 19.777344 61.484375 20.34375 C 60.992188 20.914062 60.746094 21.859375 60.746094 23.183594 Z M 60.746094 23.183594 "/>
</g>
<g clip-path="url(#clip4)" clip-rule="nonzero">
<path style=" stroke:none;fill-rule:nonzero;fill:rgb(100%,100%,100%);fill-opacity:1;" d="M 69.742188 16.660156 L 73.734375 16.660156 L 73.734375 26.476562 L 79.972656 26.476562 L 79.972656 29.679688 L 69.730469 29.679688 L 69.730469 16.660156 Z M 69.742188 16.660156 "/>
</g>
<path style=" stroke:none;fill-rule:nonzero;fill:rgb(100%,100%,100%);fill-opacity:1;" d="M 65.34375 15.910156 C 69.363281 12.859375 70.601562 7.691406 68.109375 4.363281 C 65.621094 1.035156 60.34375 0.808594 56.324219 3.859375 C 52.300781 6.910156 51.0625 12.078125 53.554688 15.40625 C 56.042969 18.734375 61.324219 18.957031 65.34375 15.910156 Z M 65.34375 15.910156 "/>
<path style=" stroke:none;fill-rule:nonzero;fill:rgb(100%,100%,100%);fill-opacity:1;" d="M 65.34375 15.910156 C 69.363281 12.859375 70.601562 7.691406 68.109375 4.363281 C 65.621094 1.035156 60.34375 0.808594 56.324219 3.859375 C 52.300781 6.910156 51.0625 12.078125 53.554688 15.40625 C 56.042969 18.734375 61.324219 18.957031 65.34375 15.910156 Z M 65.34375 15.910156 "/>
<path style=" stroke:none;fill-rule:nonzero;fill:rgb(100%,100%,100%);fill-opacity:1;" d="M 53.601562 15.546875 C 51.109375 12.214844 51.769531 7.480469 55.078125 4.972656 L 57.640625 3.027344 C 60.949219 0.515625 65.652344 1.183594 68.148438 4.511719 C 70.640625 7.84375 69.980469 12.578125 66.671875 15.085938 L 64.105469 17.03125 C 60.796875 19.542969 56.09375 18.878906 53.601562 15.546875 Z M 53.601562 15.546875 "/>
<path style="fill-rule:nonzero;fill:rgb(100%,100%,100%);fill-opacity:1;stroke-width:3;stroke-linecap:butt;stroke-linejoin:miter;stroke:rgb(0%,0%,0%);stroke-opacity:1;stroke-miterlimit:10;" d="M 451.688672 109.24974 C 479.473682 88.301042 488.033301 52.814323 470.806055 29.961198 C 453.605811 7.108073 417.126172 5.552344 389.341162 26.501042 C 361.52915 47.44974 352.969531 82.936458 370.196777 105.789583 C 387.397021 128.642708 423.903662 130.171615 451.688672 109.24974 Z M 451.688672 109.24974 " transform="matrix(0.144665,0,0,0.145631,0,0)"/>
<path style=" stroke:none;fill-rule:nonzero;fill:rgb(100%,100%,100%);fill-opacity:1;" d="M 65.34375 15.910156 C 69.363281 12.859375 70.601562 7.691406 68.109375 4.363281 C 65.621094 1.035156 60.34375 0.808594 56.324219 3.859375 C 52.300781 6.910156 51.0625 12.078125 53.554688 15.40625 C 56.042969 18.734375 61.324219 18.957031 65.34375 15.910156 Z M 65.34375 15.910156 "/>
<path style="fill-rule:nonzero;fill:rgb(100%,100%,100%);fill-opacity:1;stroke-width:4;stroke-linecap:butt;stroke-linejoin:miter;stroke:rgb(0%,0%,0%);stroke-opacity:1;stroke-miterlimit:10;" d="M 451.688672 109.24974 C 479.473682 88.301042 488.033301 52.814323 470.806055 29.961198 C 453.605811 7.108073 417.126172 5.552344 389.341162 26.501042 C 361.52915 47.44974 352.969531 82.936458 370.196777 105.789583 C 387.397021 128.642708 423.903662 130.171615 451.688672 109.24974 Z M 451.688672 109.24974 " transform="matrix(0.144665,0,0,0.145631,0,0)"/>
<path style="fill-rule:nonzero;fill:rgb(0%,0%,0%);fill-opacity:1;stroke-width:1;stroke-linecap:butt;stroke-linejoin:miter;stroke:rgb(100%,100%,100%);stroke-opacity:1;stroke-miterlimit:4;" d="M 392.068359 93.772917 L 399.898926 86.477083 C 400.573975 87.415885 401.384033 88.274219 402.275098 88.998438 L 402.3021 88.998438 C 403.085156 89.561719 403.976221 89.910417 405.002295 89.910417 C 405.812354 89.910417 406.622412 89.561719 407.189453 89.105729 C 408.323535 88.408333 409.106592 87.067188 408.998584 85.645573 L 408.998584 85.61875 C 408.674561 83.848438 407.945508 82.078125 406.784424 80.683333 L 393.094434 61.424479 L 402.275098 54.986979 L 414.290967 72.1 C 416.370117 74.86276 417.93623 77.813281 419.124316 81.058854 C 419.799365 83.446094 419.58335 86.021094 418.638281 88.301042 C 417.369189 91.22474 415.344043 93.638802 412.616846 95.382292 C 409.349609 97.66224 406.622412 98.922917 404.327246 99.298438 C 402.140088 99.673958 399.844922 99.298438 397.711768 98.359635 C 395.524609 97.259896 393.580469 95.704167 392.068359 93.772917 Z M 432.895312 35.996354 C 435.784521 35.996354 438.538721 37.283854 441.15791 40.046615 L 432.976318 46.510938 C 430.951172 44.338281 427.494922 43.935938 425.091748 45.813542 L 425.064746 45.813542 L 425.037744 45.840365 L 424.794727 46.108594 C 423.714648 46.779167 422.958594 47.744792 422.526562 48.925 C 422.148535 49.917448 422.418555 50.990365 422.985596 51.795052 L 423.012598 51.795052 L 423.012598 51.821875 C 423.471631 52.385156 424.173682 52.894792 425.064746 52.894792 C 425.577783 52.948438 426.171826 52.867969 426.873877 52.653385 C 427.629932 52.438802 428.493994 52.116927 429.493066 51.660938 C 434.488428 49.56875 438.241699 48.388542 440.779883 47.986198 C 442.913037 47.610677 445.100195 47.798438 447.09834 48.656771 C 448.907471 49.407813 450.41958 50.748958 451.472656 52.358333 L 451.472656 52.385156 L 451.499658 52.385156 C 452.822754 54.316406 453.605811 56.623177 453.686816 59.010417 C 453.794824 61.504948 453.119775 63.91901 451.769678 66.038021 C 450.014551 68.666667 447.773389 70.919792 445.127197 72.690104 C 439.645801 76.472135 435.271484 77.974219 431.869238 77.410938 C 428.277979 76.847656 425.307764 75.077344 423.120605 72.475521 L 431.437207 65.877083 C 432.436279 66.976823 433.705371 67.78151 435.028467 68.264323 L 435.055469 68.264323 L 435.055469 68.291146 C 437.215625 68.934896 439.456787 68.505729 441.29292 67.110938 C 442.53501 66.279427 443.64209 65.099219 444.074121 63.54349 C 444.74917 61.478125 443.615088 59.225 441.562939 58.527604 L 441.535937 58.527604 C 441.265918 58.420313 440.887891 58.313021 440.509863 58.313021 C 439.834814 58.259375 438.970752 58.366667 437.890674 58.634896 C 436.783594 58.929948 435.460498 59.385938 433.921387 60.029688 C 428.84502 62.121875 424.929736 62.89974 422.040527 62.604688 C 419.286328 62.309635 416.721143 60.888021 415.209033 58.527604 L 415.209033 58.500781 C 414.074951 56.891406 413.50791 55.013802 413.399902 53.082552 C 413.399902 50.883073 413.966943 48.683594 415.209033 46.886458 C 417.072168 44.23099 419.340332 41.977865 422.067529 40.207552 L 422.094531 40.207552 C 426.252832 37.3375 429.844092 35.996354 432.895312 35.996354 Z M 432.895312 35.996354 " transform="matrix(0.144665,0,0,0.145631,0,0)"/>
</g>
</svg>