<svg xmlns="http://www.w3.org/2000/svg" xmlns:xlink="http://www.w3.org/1999/xlink" viewBox="0,0,256,256" width="64px" height="64px"><g fill="#ffffff" fill-rule="nonzero" stroke="none" stroke-width="1" stroke-linecap="butt" stroke-linejoin="miter" stroke-miterlimit="10" stroke-dasharray="" stroke-dashoffset="0" font-family="none" font-weight="none" font-size="none" text-anchor="none" style="mix-blend-mode: normal"><g transform="scale(4,4)"><path d="M31,4c-10.47656,0 -19,8.52344 -19,19c0,4.97266 2.78125,8.6875 5.47266,12.28125c2.14844,2.87109 4.17188,5.60547 4.52734,8.71875v7c0,3.51953 2.61328,6.43359 6,6.92188v1.07813c0,1.10156 0.89844,2 2,2h2c1.10156,0 2,-0.89844 2,-2v-1.07812c3.38672,-0.48828 6,-3.40234 6,-6.92187v-6.10156c0.01563,-3.49609 2.22266,-6.46875 4.5625,-9.61719c2.67578,-3.59375 5.4375,-7.30859 5.4375,-12.28125c0,-10.47656 -8.52344,-19 -19,-19zM31,6c9.375,0 17,7.625 17,17c0,4.3125 -2.5625,7.75781 -5.03906,11.08984c-2.24219,3.01563 -4.55469,6.12109 -4.91406,9.84766h-6.04687v-2.9375c0,-0.55078 -0.44922,-1 -1,-1c-0.55078,0 -1,0.44922 -1,1v2.94141h-5.97266c-0.36328,-3.72656 -2.69531,-6.83984 -4.95312,-9.85937c-2.49609,-3.33203 -5.07422,-6.77344 -5.07422,-11.08203c0,-9.375 7.625,-17 17,-17zM30.86328,8.99609c-2.67187,0.02344 -5.28125,0.80859 -7.55078,2.30078c-0.46094,0.30078 -0.58594,0.92188 -0.28125,1.38281c0.19141,0.29297 0.50781,0.44922 0.83203,0.44922c0.19141,0 0.37891,-0.05078 0.55078,-0.16406c2.58984,-1.70312 5.70313,-2.32812 8.76953,-1.76562c0.54688,0.09766 1.06641,-0.26172 1.16406,-0.80469c0.10156,-0.54297 -0.25781,-1.0625 -0.80078,-1.16016c-0.89453,-0.16797 -1.78906,-0.24609 -2.68359,-0.23828zM37.85938,10.875c-0.38281,-0.05469 -0.78516,0.12109 -1,0.47266c-0.28516,0.47656 -0.13281,1.08984 0.34375,1.375c0.82422,0.5 1.59375,1.10156 2.28125,1.79297c0.19531,0.19531 0.45313,0.29297 0.70703,0.29297c0.25781,0 0.51563,-0.09766 0.71094,-0.29297c0.39063,-0.39062 0.39063,-1.02344 0,-1.41406c-0.80859,-0.80469 -1.70312,-1.50781 -2.66797,-2.08984c-0.11719,-0.07031 -0.24609,-0.11719 -0.375,-0.13672zM5.02344,11.51172c-0.39062,0.00781 -0.75781,0.24219 -0.91406,0.625c-0.20312,0.51172 0.04297,1.09766 0.55469,1.30078l3.71094,1.5c0.12109,0.05078 0.24609,0.07422 0.37109,0.07422c0.39453,0 0.77344,-0.23828 0.92969,-0.625c0.20703,-0.51562 -0.04297,-1.09766 -0.55469,-1.30469l-3.70703,-1.5c-0.12891,-0.05078 -0.26172,-0.07422 -0.39062,-0.07031zM56.97656,11.51172c-0.12891,-0.00391 -0.26172,0.01953 -0.39062,0.07031l-3.70703,1.5c-0.51172,0.20703 -0.76172,0.78906 -0.55469,1.30469c0.15625,0.38672 0.53516,0.625 0.92969,0.625c0.125,0 0.25,-0.02344 0.37109,-0.07422l3.71094,-1.5c0.51172,-0.20312 0.75781,-0.78906 0.55469,-1.30078c-0.15625,-0.38281 -0.52344,-0.61719 -0.91406,-0.625zM1,22c-0.55078,0 -1,0.44922 -1,1c0,0.55078 0.44922,1 1,1h6c0.55078,0 1,-0.44922 1,-1c0,-0.55078 -0.44922,-1 -1,-1zM55,22c-0.55078,0 -1,0.44922 -1,1c0,0.55078 0.44922,1 1,1h6c0.55078,0 1,-0.44922 1,-1c0,-0.55078 -0.44922,-1 -1,-1zM27,26c-0.25391,0 -0.51172,0.09766 -0.70703,0.29297c-0.39062,0.39063 -0.39062,1.02344 0,1.41406l2,2c0.19531,0.19531 0.44922,0.29297 0.70703,0.29297c0.25781,0 0.51172,-0.09766 0.70703,-0.29297c0.39063,-0.39062 0.39063,-1.02344 0,-1.41406l-2,-2c-0.19531,-0.19531 -0.45312,-0.29297 -0.70703,-0.29297zM35,26c-0.25391,0 -0.51172,0.09766 -0.70703,0.29297l-4,4c-0.1875,0.1875 -0.29297,0.44141 -0.29297,0.70703v6c0,0.55078 0.44922,1 1,1c0.55078,0 1,-0.44922 1,-1v-5.58594l3.70703,-3.70703c0.39063,-0.39062 0.39063,-1.02344 0,-1.41406c-0.19531,-0.19531 -0.45312,-0.29297 -0.70703,-0.29297zM8.76563,30.98828c-0.13281,0 -0.26562,0.02344 -0.39062,0.07422l-3.71094,1.5c-0.51172,0.20313 -0.75781,0.78906 -0.55469,1.30078c0.16016,0.39063 0.53516,0.625 0.92969,0.625c0.125,0 0.25391,-0.02344 0.375,-0.07031l3.70703,-1.5c0.51172,-0.20703 0.76172,-0.78906 0.55469,-1.30469c-0.15625,-0.38281 -0.52344,-0.61719 -0.91016,-0.625zM53.23438,30.99219c-0.38672,0.00781 -0.75391,0.24219 -0.91016,0.625c-0.20703,0.51172 0.04297,1.09766 0.55469,1.30469l3.70703,1.49609c0.12109,0.05078 0.25,0.07031 0.375,0.07031c0.39453,0 0.76953,-0.23437 0.92969,-0.625c0.20313,-0.51172 -0.04297,-1.09375 -0.55469,-1.30078l-3.71094,-1.5c-0.125,-0.05078 -0.25781,-0.07422 -0.39062,-0.07031zM24,46h14v1.11719l-14,1.75zM38,49.13281v1.86719c0,0.03906 -0.01172,0.07813 -0.01172,0.12109l-10.15625,1.26953c-0.54687,0.06641 -0.93359,0.56641 -0.86328,1.11328c0.0625,0.50781 0.49219,0.875 0.98828,0.875c0.04297,0 0.08203,0 0.125,-0.00781l9.38672,-1.17187c-0.81641,1.65234 -2.50391,2.80078 -4.46875,2.80078h-4c-2.75781,0 -5,-2.24219 -5,-5v-0.11719zM30,58h2v1h-2z"></path></g></g></svg>